PathFileType	4	(X/Y/Z)	Patient4_TMGait_0pt3_03_left_24.trc.trc
DataRate	CameraRate	NumFrames	NumMarkers	Units	OrigDataRate	OrigDataStartFrame	OrigNumFrames
53.231939163498	53.231939163498	4	33	mm	53.231939163498	106	       141
Frame#	Time	Sacral			L.Shoulder			Chest			R.Shoulder			Neck			R.ASIS			L.ASIS			R.Thigh.Superior			R.Thigh.Lateral			R.Thigh.Inferior			R.Patella			L.Thigh.Superior			L.Thigh.Lateral			L.Thigh.Inferior			L.Patella			L.Shank.Superior			L.Shank.Lateral			L.Shank.Inferior			R.Shank.Superior			R.Shank.Lateral			R.Shank.Inferior			R.Heel			R.Midfoot.Superior			R.Midfoot.Lateral			R.Toe			L.Heel			L.Midfoot.Lateral			L.Midfoot.Superior			L.Toe			L.Elbow			L.Wrist			R.Elbow			R.Wrist			
		X1	Y1	Z1	X2	Y2	Z2	X3	Y3	Z3	X4	Y4	Z4	X5	Y5	Z5	X6	Y6	Z6	X7	Y7	Z7	X8	Y8	Z8	X9	Y9	Z9	X10	Y10	Z10	X11	Y11	Z11	X12	Y12	Z12	X13	Y13	Z13	X14	Y14	Z14	X15	Y15	Z15	X16	Y16	Z16	X17	Y17	Z17	X18	Y18	Z18	X19	Y19	Z19	X20	Y20	Z20	X21	Y21	Z21	X22	Y22	Z22	X23	Y23	Z23	X24	Y24	Z24	X25	Y25	Z25	X26	Y26	Z26	X27	Y27	Z27	X28	Y28	Z28	X29	Y29	Z29	X30	Y30	Z30	X31	Y31	Z31	X32	Y32	Z32	X33	Y33	Z33	

106	43.942500000000	691.424658619263	990.866532598348	598.793426609127	875.501143764463	1412.747200793978	400.898523845240	977.986679824744	1347.792222499892	563.229050577892	898.261748400263	1424.970458780010	737.284360468032	857.765123565121	1480.331168464748	556.858065812581	928.508387930017	926.523816107515	704.557150509673	899.748258854987	951.015699778079	432.629547704016	979.388407079937	729.864696532135	658.881072349501	906.985921616111	611.590981533932	712.872661026935	982.333455416787	567.911107631073	625.081773350457	986.188417365783	472.147531828925	626.005937377329	987.867839193519	768.953780874115	465.093875497651	948.021352817714	641.330420785053	386.623443703965	1048.558459762607	579.954662906348	455.277812558059	1061.311895670240	489.692698886116	443.644404222344	993.575978330433	425.023013695552	428.478411717017	851.538172438361	385.969129085343	377.838027435003	840.809771742580	252.342203021292	420.735650235296	939.570721318807	385.426761771346	631.871945379324	855.080015335913	292.489168791226	694.883569273221	873.712867187066	195.330368913612	626.695338091816	713.663334914835	44.297091334160	600.848353821268	885.137871575964	95.346252220751	633.166351443970	797.391904041730	37.568542723999	674.471548558258	1005.513744927663	42.819583064916	662.700032024216	652.197733752368	181.353200499035	456.360656802985	708.500144356525	145.445225174701	370.589109563355	813.847273639606	153.515228676771	390.514663071829	892.819431040423	46.595098201484	348.347246053132	858.958762364888	1051.433588381915	303.880562282848	938.728810022526	803.787049181129	302.090486374954	875.309676881182	1076.123419230645	865.139100155530	1004.631045987619	850.486270039637	882.187206636170	
107	43.961285714286	690.416193060383	989.470092090419	601.738652126375	871.925747215330	1410.951430068408	401.276038560131	976.516519597439	1346.455680878178	562.478119641199	898.938281591674	1423.873533394324	737.496183257801	856.443670909320	1479.028237970919	557.172121754857	928.451600311882	925.235456640017	704.813160667260	896.734600890228	949.860967380954	433.282370556931	978.865931221251	728.500438531650	658.411089424259	907.208272830861	610.068979267436	712.914176089162	981.628423725301	566.540398075779	624.246403634984	985.274150115263	470.503175859921	624.979005872781	986.926889791931	770.100103234070	465.918107702249	948.811664864163	642.060864065630	387.441641078500	1050.138533737843	582.144914303564	456.058964275849	1064.740095766560	492.574999314755	444.175892263996	999.272651270927	426.483723217436	428.669225790871	858.674474226839	382.108050611240	378.910271702259	854.022038401001	247.942978375461	420.920812672663	937.665717766053	383.876540027088	631.127750571942	852.626051468066	291.709384795237	694.633369098315	869.641978841668	194.468436828174	626.324958610289	708.044309194279	44.356604810981	600.954605840499	879.540359645884	95.232377465714	633.080948063981	791.785187210563	37.572209605250	674.549562251781	999.898174543397	42.576962335131	662.743013826326	669.245567149401	168.246817901283	457.710123507166	726.233221698319	136.041930050843	371.010374952746	831.048795388558	148.851976217295	390.180913139768	914.463338621638	46.685622165981	346.081524855715	844.228443890480	1049.731761089869	306.815210439874	906.001537346705	796.736593464548	307.538708314457	888.256960754689	1074.194720501297	865.476492313925	1035.478914398981	859.657041619261	877.477808038865	
108	43.980071428571	689.485664942126	988.752231977549	604.346372550875	868.525759375194	1409.783354097178	401.538539809630	975.214049071161	1345.635860156823	561.524537778778	899.861847704131	1423.297291877587	737.492932339309	855.288733444962	1478.246592056813	557.341211996995	928.335690336953	924.365700540375	704.754998876734	893.823033223444	949.172000533038	433.622840958122	977.735107341906	727.316675664853	657.881211450714	906.466978576085	608.999163096613	713.009436283658	979.856626020410	565.367521407568	623.547629196484	983.124561434087	469.242850592359	624.165432573135	985.464749440377	771.226105758740	466.270602804222	948.544529759902	642.910482560860	387.746745941188	1050.480419354783	584.147473353938	456.177591153028	1066.816806585798	495.546532542147	444.112219632743	1004.078863244264	428.058843764056	428.288456197782	865.667157074008	377.418438967191	379.118019743410	867.964588489836	242.971449167584	420.390828113284	934.777489867142	382.716483436054	630.548520080458	849.440451690761	291.106615745729	694.518380835118	865.161529896075	193.839223499800	626.084806751226	702.409273873256	44.421361638520	601.084483544472	873.935268299679	95.152087916161	633.072531552990	786.164445655856	37.570570169242	674.640318906886	994.268895117143	42.356226987063	662.781028468622	687.924261130849	153.614125702815	458.026014799313	745.830706555283	125.319558955669	370.614017155454	849.788435733071	143.467725698222	389.230273998238	938.132767172462	46.660576723829	343.635015089541	829.261580301818	1049.292696613497	309.284649710601	874.361708578879	792.630281152580	313.038718906357	901.587828073592	1073.316112466301	865.370393178606	1066.255224844319	871.809176064253	871.935805037452	
109	43.998857142857	688.637514385509	988.778640437440	606.592608246297	865.333908493000	1409.322358703060	401.687897030137	974.099963134935	1345.386134989010	560.367789364655	901.058392687938	1423.294264696325	737.267404778065	854.319965518744	1478.040620234322	557.376483325166	928.159260390530	923.966975198723	704.394593797414	891.065198277359	949.032579397664	433.641616417861	975.978815223244	726.357130816533	657.311703177561	904.712086810228	608.420234240046	713.158325813072	976.989612220158	564.432046530190	623.010822995965	979.708642359712	468.404092213864	623.592776059502	983.504288970834	772.365482084842	466.213480805126	947.274954352803	643.909618591598	387.560577356027	1049.608159500485	585.966527789654	455.695072809200	1067.552875147045	498.608325784500	443.525158713502	1007.958121042540	429.799912999440	427.417010936475	872.579217447285	372.157950086203	378.434392609266	882.462760146006	237.802223941087	419.214698155196	930.881092194150	381.988003792020	630.157867856985	845.487570809179	290.713070462820	694.546867042067	860.256002643576	193.467986249808	625.982205106423	696.754145788448	44.494939654487	601.235773381981	868.318905143592	95.102595193644	633.132552379916	780.526970134400	37.564952649722	674.743435891655	988.623740667446	42.165448482431	662.812480986167	708.018788939410	138.221067632967	457.256457816144	767.098551558368	113.889901816177	369.440806464249	869.820173490195	137.779556451265	387.783203025838	963.386009579544	46.752492063047	341.323951328773	814.201540529978	1050.206822592315	311.325841030012	844.167828252335	791.301596699379	318.510682559141	915.246489262820	1073.572678833246	864.832731106069	1096.486182372093	886.968319090881	865.662663943943	
